<?xml version="1.0" encoding="utf-8"?>
<!-- Generator: Adobe Illustrator 16.0.0, SVG Export Plug-In . SVG Version: 6.00 Build 0)  -->
<!DOCTYPE svg PUBLIC "-//W3C//DTD SVG 1.1//EN" "http://www.w3.org/Graphics/SVG/1.1/DTD/svg11.dtd">
<svg version="1.1" id="Layer_1" xmlns="http://www.w3.org/2000/svg" xmlns:xlink="http://www.w3.org/1999/xlink" x="0px" y="0px"
	 width="50px" height="50px" viewBox="0 0 50 50" enable-background="new 0 0 50 50" xml:space="preserve">
<g>
	<path fill="#E6E7E8" d="M36.543,33.39c0.546-0.171,1.345-0.191,1.899-0.191c0.338,0,0.687,0.009,1.026,0.016
		c0.333,0.008,0.679,0.018,1.008,0.018c2.349,0,4.56-0.994,6.226-2.803c1.557-1.687,2.448-3.949,2.448-6.204
		c0-2.368-0.919-4.506-2.589-6.02c-1.569-1.424-3.73-2.209-6.085-2.209c-0.855,0-1.575,0.126-2.174,0.276
		c0.005-0.563,0.007-1.151,0.007-1.766c0-1.624-1.032-3.9-5.954-5.527c-3.176-1.049-7.359-1.627-11.78-1.627
		c-4.422,0-8.606,0.578-11.782,1.627c-4.92,1.627-5.953,3.903-5.953,5.527c0,6.921,0.24,12.422,1.411,16.773
		c1.138,4.224,3.125,7.454,6.645,10.8c2.202,2.094,5.549,3.201,9.679,3.201c4.131,0,7.477-1.107,9.679-3.201
		c2.68-2.548,4.491-5.149,5.871-8.431C36.145,33.604,36.188,33.502,36.543,33.39z M34.349,32.899
		c-1.221,2.902-2.841,5.326-5.425,7.78c-1.805,1.718-4.646,2.671-8.349,2.671c-3.702,0-6.545-0.953-8.351-2.671
		C5.873,34.64,4.77,29.038,4.77,14.506c0-2.886,7.076-5.223,15.805-5.223c8.729,0,15.804,2.337,15.804,5.223
		c0,1.464-0.011,2.836-0.038,4.129c0.095,0.015,0.188,0.021,0.282,0.021c0.995,0,2.034-0.729,3.854-0.729
		c1.874,0,3.575,0.606,4.789,1.707c1.263,1.144,1.957,2.773,1.957,4.591c0,1.777-0.707,3.561-1.939,4.896
		c-1.296,1.406-3.003,2.181-4.807,2.181c-0.63,0-1.332-0.033-2.034-0.033C36.693,31.269,34.948,31.473,34.349,32.899z"/>
	<path fill="#E6E7E8" d="M40.477,28.658c2.214-0.224,4.102-2.071,4.102-4.434c0-2.22-1.611-3.654-4.102-3.654
		c-2.063,0-3.56,1.058-4.309,2.427c-0.075,1.212-0.605,4.916-0.737,5.974c0.543-0.321,1.3-0.408,2.084-0.408
		c0.903,0,1.846,0.114,2.548,0.114C40.212,28.677,40.353,28.671,40.477,28.658z M38.054,23.626c0.353-0.476,1.081-1.127,2.423-1.127
		c0.99,0,2.171,0.302,2.171,1.726c0,1.423-1.202,2.396-2.365,2.513c-0.035,0.003-0.104,0.007-0.22,0.007
		c-0.267,0-0.618-0.022-0.99-0.048c-0.425-0.027-0.9-0.06-1.385-0.063C37.833,25.544,37.977,24.405,38.054,23.626z"/>
	<path fill="#E6E7E8" d="M31.909,12.988c-0.236-0.126-0.527-0.039-0.654,0.196c-0.127,0.234-0.04,0.527,0.195,0.654
		c0.643,0.346,1.012,0.718,1.012,1.021c0,0.269-0.298,0.644-1.038,1.036c-1.783-1.307-5.968-2.225-10.849-2.225
		c-4.881,0-9.066,0.918-10.85,2.225c-0.739-0.392-1.037-0.767-1.037-1.036c0-0.304,0.37-0.676,1.015-1.022
		c0.235-0.126,0.322-0.419,0.196-0.654c-0.126-0.235-0.419-0.322-0.654-0.196c-1.011,0.543-1.522,1.173-1.522,1.873
		c0,1.52,2.447,2.593,5.816,3.194c-0.438,0.512-0.654,1.301-0.654,2.405v4.79c-0.104,0.052-0.204,0.119-0.291,0.208l-2.137,2.137
		c-0.425,0.425-0.773,1.267-0.773,1.868v3.505c0,0.6,0.493,1.094,1.094,1.094h5.18c0.602,0,1.095-0.494,1.095-1.094V29.46
		c0-0.602-0.348-1.443-0.774-1.868l-2.137-2.137c-0.087-0.089-0.186-0.155-0.292-0.208v-4.79c0-0.921,0.164-1.542,0.488-1.849
		c0.224-0.211,0.561-0.302,1.028-0.274c0.027,0.001,0.052,0,0.077-0.003c1.626,0.191,3.382,0.289,5.131,0.289
		c6.386,0,12.851-1.292,12.851-3.762C33.427,14.161,32.916,13.531,31.909,12.988z"/>
</g>
</svg>
