<?xml version="1.0" encoding="utf-8"?>
<!-- Generator: Adobe Illustrator 16.0.0, SVG Export Plug-In . SVG Version: 6.00 Build 0)  -->
<!DOCTYPE svg PUBLIC "-//W3C//DTD SVG 1.1//EN" "http://www.w3.org/Graphics/SVG/1.1/DTD/svg11.dtd">
<svg version="1.1" id="Layer_1" xmlns="http://www.w3.org/2000/svg" xmlns:xlink="http://www.w3.org/1999/xlink" x="0px" y="0px"
	 width="100px" height="78.863px" viewBox="0 0 100 78.863" enable-background="new 0 0 100 78.863" xml:space="preserve">
<path fill="#E6E7E8" d="M37.2,62.332l-2.835-4.143c-0.216-0.322-0.452-0.644-0.688-0.964c-0.141-0.192-0.282-0.384-0.42-0.578
	l-2.238-3.069c-0.225-0.313-0.465-0.624-0.706-0.935c-0.149-0.193-0.299-0.387-0.446-0.583l-1.163-1.516
	c-0.677-0.891-1.434-1.848-2.375-3.007l-0.481-0.598c-0.628-0.78-1.277-1.587-1.937-2.363l-1.218-1.453
	c-0.267-0.327-0.552-0.655-0.839-0.983l-0.405-0.468l-1.243-1.422c0,0-0.476-0.538-0.584-0.66l6.024-7.013
	c0.171,0.121,0.812,0.58,0.812,0.58l1.649,1.191c0.182,0.134,0.374,0.273,0.566,0.413c0.35,0.253,0.699,0.506,1.036,0.767
	l1.625,1.225c0.838,0.626,1.669,1.278,2.472,1.91l0.706,0.554c1.181,0.921,2.203,1.742,3.126,2.512c0,0,1.914,1.578,2.088,1.72
	c0.34,0.278,0.682,0.557,1.01,0.848l1.891,1.641l0.751-0.894c0.812-0.966,1.635-1.926,2.469-2.887
	c3.204-3.685,6.426-7.171,9.578-10.361c3.622-3.666,7.032-6.835,10.424-9.689c0.907-0.765,1.842-1.527,2.782-2.27l1.435-1.114
	l1.455-1.075c0.316-0.238,0.643-0.466,0.969-0.694l0.515-0.362c0.48-0.338,0.981-0.68,1.491-1.012
	c0.714-0.48,1.461-0.945,2.201-1.397l5.068,7.613c-0.533,0.432-1.075,0.876-1.607,1.344c-0.392,0.333-0.795,0.699-1.19,1.066
	l-0.288,0.261c-0.305,0.274-0.607,0.548-0.904,0.845l-1.129,1.088l-1.141,1.158c-0.756,0.772-1.508,1.566-2.238,2.361
	c-2.742,2.995-5.483,6.307-8.383,10.125c-2.554,3.354-5.062,6.895-7.666,10.819c-1.221,1.838-2.43,3.714-3.591,5.577l-1.718,2.812
	l-0.835,1.41c-0.168,0.285-0.676,1.112-1.021,1.671H37.2L37.2,62.332z"/>
</svg>
