<?xml version="1.0" encoding="utf-8"?>
<!-- Generator: Adobe Illustrator 16.0.0, SVG Export Plug-In . SVG Version: 6.00 Build 0)  -->
<!DOCTYPE svg PUBLIC "-//W3C//DTD SVG 1.1//EN" "http://www.w3.org/Graphics/SVG/1.1/DTD/svg11.dtd">
<svg version="1.1"
	 id="svg4881" xmlns:dc="http://purl.org/dc/elements/1.1/" xmlns:cc="http://creativecommons.org/ns#" xmlns:rdf="http://www.w3.org/1999/02/22-rdf-syntax-ns#" xmlns:svg="http://www.w3.org/2000/svg"
	 xmlns="http://www.w3.org/2000/svg" xmlns:xlink="http://www.w3.org/1999/xlink" x="0px" y="0px" width="100px" height="100px"
	 viewBox="0 0 100 100" enable-background="new 0 0 100 100" xml:space="preserve">
<g id="layer1" transform="translate(0,-952.36218)">
	<g id="g3837" transform="matrix(-0.41391141,0,0,0.4262536,60.281532,554.69112)">
	</g>
	<g id="g3928">
		<path id="path3940" fill="#E9E9FF" d="M-331.918,71.893L-331.918,71.893L-331.918,71.893L-331.918,71.893L-331.918,71.893z"/>
		<path id="path3936" fill="#D7D7FF" d="M-331.918,71.893L-331.918,71.893L-331.918,71.893L-331.918,71.893z"/>
		<path id="path3938" fill="#AFAFDE" d="M-331.918,71.893L-331.918,71.893L-331.918,71.893L-331.918,71.893z"/>
		<path id="path3932" fill="#4D4D9F" d="M-331.918,71.893L-331.918,71.893L-331.918,71.893L-331.918,71.893L-331.918,71.893z"/>
		<path id="path3930" fill="#353564" d="M-331.918,71.893L-331.918,71.893L-331.918,71.893L-331.918,71.893L-331.918,71.893z"/>
		<path id="path3934" fill="#8686BF" d="M-331.918,71.893L-331.918,71.893L-331.918,71.893L-331.918,71.893L-331.918,71.893z"/>
	</g>
	<g id="g3942">
		<path id="path3954" fill="#E9E9FF" d="M-331.918,71.893L-331.918,71.893L-331.918,71.893L-331.918,71.893L-331.918,71.893z"/>
		<path id="path3950" fill="#D7D7FF" d="M-331.918,71.893L-331.918,71.893L-331.918,71.893L-331.918,71.893L-331.918,71.893z"/>
		<path id="path3952" fill="#AFAFDE" d="M-331.918,71.893L-331.918,71.893L-331.918,71.893L-331.918,71.893L-331.918,71.893z"/>
		<path id="path3946" fill="#4D4D9F" d="M-331.918,71.893L-331.918,71.893L-331.918,71.893L-331.918,71.893L-331.918,71.893z"/>
		<path id="path3944" fill="#353564" d="M-331.918,71.893L-331.918,71.893L-331.918,71.893L-331.918,71.893L-331.918,71.893z"/>
		<path id="path3948" fill="#8686BF" d="M-331.918,71.893L-331.918,71.893L-331.918,71.893L-331.918,71.893L-331.918,71.893z"/>
	</g>
	<path id="path3902" fill="#404A66" d="M33.026,1019.866c-0.145,0.094-0.22,0.262-0.324,0.412l-4.534,6.516
		c-0.419,0.613-0.223,1.484,0.386,1.902l5.928,4.037c0.607,0.416,1.412,0.256,1.83-0.355l4.536-6.514
		c0.417-0.609,0.224-1.482-0.387-1.9l-5.926-4.037C34.078,1019.614,33.465,1019.585,33.026,1019.866L33.026,1019.866z
		 M21.233,1010.998c-0.495,0.163-0.892,0.589-0.933,1.14l-0.549,7.215c-0.057,0.738,0.465,1.369,1.203,1.428l7.953,0.631
		c0.734,0.061,1.364-0.465,1.423-1.201l0.548-7.215c0.06-0.738-0.464-1.368-1.201-1.426l-7.952-0.635
		C21.543,1010.923,21.399,1010.947,21.233,1010.998L21.233,1010.998z M34.598,1009.675l-2.401,6.797
		c-0.247,0.697,0.114,1.453,0.812,1.699l7.527,2.658c0.699,0.246,1.454-0.115,1.7-0.811l2.4-6.799
		c0.247-0.697-0.114-1.453-0.812-1.699l-7.528-2.658c-0.348-0.125-0.711-0.098-1.019,0.051
		C34.971,1009.057,34.721,1009.32,34.598,1009.675z M85.385,967.28c-0.07,0.031-0.143,0.065-0.211,0.103
		c-0.137,0.079-0.27,0.171-0.391,0.274c-16.145,11.268-28.266,25.876-37.283,42.766c-0.715-0.287-1.444-0.461-2.2-0.6
		c1.301,0.842,1.867,2.539,1.33,4.055l-0.404,1.154c0.05,0.031,0.091,0.074,0.137,0.107c0.116,0.184,0.254,0.35,0.412,0.496
		c0.034,0.014,0.069,0.025,0.104,0.037c0.709,0.885,1.095,2.248,0.692,4.363c-0.46,2.447-2.004,5.473-4.425,8.201
		c-1.17,1.316-2.475,2.367-3.742,3.264l-1.37,2.045c-1.041,1.518-3.242,1.955-4.785,0.898l-0.521-0.361
		c-1.02-0.031-1.835-0.32-2.371-0.779c-0.393-0.336-0.646-0.82-0.853-1.418l-2.183-1.477c-1.577-1.082-2.062-3.207-0.931-4.857
		l1.51-2.111l-1.997-0.178c-0.656,1.441-1.141,2.896-1.41,4.322c-0.672,3.566-0.127,7.252,2.566,9.555
		c2.693,2.305,6.497,2.363,9.975,1.23c3.481-1.135,6.919-3.477,9.878-6.805c2.953-3.328,4.88-7,5.555-10.566
		c0.482-2.562-0.026-5.041-1.171-7.178c8.754-16.754,20.521-31.016,36.324-42.045c0.875-0.586,1.293-1.659,1.045-2.682
		c-0.33-1.35-1.688-2.173-3.035-1.846C85.549,967.255,85.467,967.265,85.385,967.28L85.385,967.28z"/>
</g>
</svg>
